<?xml version="1.0" encoding="UTF-8" standalone="no"?>
<!-- Created with Inkscape (http://www.inkscape.org/) -->

<svg
   xmlns:dc="http://purl.org/dc/elements/1.1/"
   xmlns:cc="http://creativecommons.org/ns#"
   xmlns:rdf="http://www.w3.org/1999/02/22-rdf-syntax-ns#"
   xmlns:svg="http://www.w3.org/2000/svg"
   xmlns="http://www.w3.org/2000/svg"
   xmlns:sodipodi="http://sodipodi.sourceforge.net/DTD/sodipodi-0.dtd"
   xmlns:inkscape="http://www.inkscape.org/namespaces/inkscape"
   width="48"
   height="48"
   viewBox="0 0 48 48"
   version="1.1"
   id="svg8"
   inkscape:version="0.92.2 (5c3e80d, 2017-08-06)"
   sodipodi:docname="drawing.svg"
   inkscape:export-filename="E:\Patrick\Code\circuit-tester\mobile\src\main\res\mipmap-ldpi\ic_launcher.png"
   inkscape:export-xdpi="72"
   inkscape:export-ydpi="72">
  <defs
     id="defs2" />
  <sodipodi:namedview
     id="base"
     pagecolor="#ffffff"
     bordercolor="#666666"
     borderopacity="1.0"
     inkscape:pageopacity="0.0"
     inkscape:pageshadow="2"
     inkscape:zoom="12.222222"
     inkscape:cx="15.647518"
     inkscape:cy="23.184325"
     inkscape:document-units="px"
     inkscape:current-layer="svg8"
     showgrid="false"
     units="px"
     showguides="true"
     inkscape:guide-bbox="true"
     inkscape:window-width="1920"
     inkscape:window-height="1017"
     inkscape:window-x="-8"
     inkscape:window-y="-8"
     inkscape:window-maximized="1">
    <inkscape:grid
       type="xygrid"
       id="grid4504"
       empspacing="4" />
  </sodipodi:namedview>
  <metadata
     id="metadata5">
    <rdf:RDF>
      <cc:Work
         rdf:about="">
        <dc:format>image/svg+xml</dc:format>
        <dc:type
           rdf:resource="http://purl.org/dc/dcmitype/StillImage" />
        <dc:title></dc:title>
      </cc:Work>
    </rdf:RDF>
  </metadata>
  <circle
     style="fill:#ffffff;fill-opacity:1;stroke:none;stroke-width:1.04000008;stroke-miterlimit:4;stroke-dasharray:none"
     id="path4506"
     cx="24"
     cy="24"
     r="20" />
  <path
     id="path4516"
     d="m 30.831424,17.832286 q 0.281386,0.312416 0.10946,0.688017 L 22.498478,36.608954 Q 22.295235,37 21.841844,37 q -0.06248,0 -0.2189,-0.02106 -0.2658,-0.07792 -0.398697,-0.297666 -0.132912,-0.218338 -0.07036,-0.469674 l 3.079917,-12.632336 -6.347427,1.579067 q -0.06248,0.02106 -0.187591,0.02106 -0.281453,0 -0.484629,-0.171999 -0.28145,-0.233788 -0.20324,-0.60939 l 3.142454,-12.898137 q 0.06248,-0.219041 0.250141,-0.359453 Q 20.591102,11 20.841243,11 h 5.127969 q 0.297042,0 0.500288,0.195174 0.203245,0.195171 0.203245,0.460548 0,0.125666 -0.07814,0.282229 l -2.673429,7.238635 6.191089,-1.532172 q 0.125111,-0.02808 0.187659,-0.02808 0.29704,0 0.531597,0.233785 z"
     inkscape:connector-curvature="0"
     style="opacity:0.98000004;fill:#03a9f4;fill-opacity:1;stroke-width:0.26458332" />
</svg>
